<svg xmlns="http://www.w3.org/2000/svg" viewBox="175.50 1960.50 69.00 99.00"><g transform="translate(30,1227.6378)" fill="currentColor"><path xmlns="http://www.w3.org/2000/svg" id="path3037-95" d="m 185,793.36218 c 2,4 7,10 12,10 9,0 13,-8 13,-18 0,-10 -4,-19 -13,-19 -5,0 -8,5 -11,8 -1,1 -2,0 -1,-1 3,-3 8,-11 8,-18 0,-8 -5,-18 -13,-18 -8,0 -13,10 -13,18 0,7 5,15 8,18 1,1 0,2 -1,1 -3,-3 -6,-8 -11,-8 -9,0 -13,9 -13,19 0,10 4,18 13,18 5,0 10,-6 12,-10 1,-1 1,0 1,1 -1,8 -1,10 -2,16 -1,6 -4,17 -4,17 5,-2 15,-2 20,0 0,0 -3,-11 -4,-17 -1,-6 -1,-8 -2,-16 0,-1 0,-2 1,-1 z" style="fill:currentColor;fill-opacity:1;stroke:none"/></g></svg>