<svg xmlns="http://www.w3.org/2000/svg" viewBox="175.50 820.50 69.00 99.00"><g transform="translate(30,87.637818)" fill="currentColor"><path xmlns="http://www.w3.org/2000/svg" id="path3126-70" d="m 179,755.36218 c 0,-11.04569 -5.71573,-18 -14,-18 -8.28427,0 -15,8.95431 -15,20 0.0349,0.95559 0.0182,1.89119 0,2.8125 0,7.29848 2.67685,14.37684 5,21 2.38903,6.81096 5.83357,12.78067 9.0625,18.875 5.00123,9.4394 15.9375,27.3125 15.9375,27.3125 0,0 10.93627,-17.8731 15.9375,-27.3125 3.22893,-6.09433 6.67347,-12.06404 9.0625,-18.875 2.32315,-6.62316 5,-13.70152 5,-21 -0.0284,-0.9744 -0.0186,-1.91462 0,-2.8125 0,-11.04569 -6.71573,-20 -15,-20 -8.28427,0 -14,6.95431 -14,18 0,2 -2,2 -2,0 z" style="fill:currentColor;fill-opacity:1;stroke:none"/></g></svg>