<svg xmlns="http://www.w3.org/2000/svg" viewBox="175.50 250.50 69.00 99.00"><g transform="translate(30,-482.36218)" fill="currentColor"><path xmlns="http://www.w3.org/2000/svg" id="path3037-7-83" d="m 185,793.36218 c 1,4 5,14 12,14 9,0 13,-8 13,-18 0,-7 -2.57895,-11.61229 -5,-17 -2.57788,-5.73673 -6.37932,-10.85741 -10,-16 -4.6453,-6.5979 -15,-19 -15,-19 0,0 -10.3547,12.4021 -15,19 -3.62068,5.14259 -7.42212,10.26327 -10,16 -2.42105,5.38771 -5,10 -5,17 0,10 4,18 13,18 7,0 11,-10 12,-14 1,-1 1,0 1,1 -1,8 -1,10 -2,16 -1,6 -4,17 -4,17 5,-2 15,-2 20,0 0,0 -3,-11 -4,-17 -1,-6 -1,-8 -2,-16 0,-1 0,-2 1,-1 z" style="fill:currentColor;fill-opacity:1;stroke:none"/></g></svg>