<svg xmlns="http://www.w3.org/2000/svg" viewBox="437.50 57.50 25.00 55.00"><g transform="translate(420,-482.36218)" fill="currentColor"><path xmlns="http://www.w3.org/2000/svg" style="fill:currentColor;fill-opacity:1;stroke:none" id="rect3163-52-9-8-1-38" d="m 30,542.36208 c -5.54,0 -10,4.46 -10,10 l 0,5 5,0 0,-5 c 0,-2.77 2.23,-5 5,-5 2.77,0 5,2.23 5,5 l 0,5 c 0,1.1275 -0.37508,3.0654 -1,3.9 -4.46327,9.10415 -9.27824,17.12865 -14,26.1 l 0,5 10,0 10,0 0,-5 0,-5 -5,0 0,5 -5,0 -4.5,0 c 4.48873,-7.91544 8.21831,-15.57184 12.5,-23.6 1.25012,-1.6693 2,-4.1448 2,-6.4 l 0,-5 c 0,-5.54 -4.46,-10 -10,-10 z"/></g></svg>