<svg xmlns="http://www.w3.org/2000/svg" viewBox="827.50 57.50 25.00 55.00"><g transform="translate(810,-482.36218)" fill="currentColor"><path xmlns="http://www.w3.org/2000/svg" style="fill:currentColor;fill-opacity:1;stroke:none" id="rect3163-5-1-4-3-4-0-3" d="m 30,542.36208 c -5.54,0 -10,4.46 -10,10 l 0,5 5,0 0,-5 c 0,-2.77 2.23,-5 5,-5 2.77,0 5,2.23 5,5 l 0,5 c 0,2.77 -2.23,5 -5,5 l -5,0 0,5 5,0 c 2.77,0 5,2.23 5,5 l 0,10 c 0,2.77 -2.23,5 -5,5 -2.77,0 -5,-2.23 -5,-5 l 0,-5 -5,0 0,5 c 0,5.54 4.46,10 10,10 5.54,0 10,-4.46 10,-10 l 0,-10 c 0,-3.0036 -1.32295,-5.67 -3.40625,-7.5 2.0833,-1.83 3.40625,-4.4964 3.40625,-7.5 l 0,-5 c 0,-5.54 -4.46,-10 -10,-10 z"/></g></svg>