<svg xmlns="http://www.w3.org/2000/svg" viewBox="1607.50 57.50 25.00 55.00"><g transform="translate(1590,-482.36218)" fill="currentColor"><path xmlns="http://www.w3.org/2000/svg" style="fill:currentColor;fill-opacity:1;stroke:none" id="rect3163-6-0-0-2-6" d="m 20,542.36208 0,14.99999 0,5 10,0 c 2.77,0 5.00001,2.23 5.00001,5.00005 l 0,14.99996 c 0,2.77001 -2.23001,5.00001 -5.00001,5.00001 -2.77,0 -5,-2.23 -5,-5.00001 l 0,-4.99999 -5,0 0,4.99999 c 0,5.54 4.46,10 10,10 5.54001,0 10,-4.46 10,-10 l 0,-14.99996 c 0,-5.54005 -4.45999,-10.00005 -10,-10.00005 l -5,0 0,-9.99998 5,0 10,0 0,-5.00001 -10,0 -5,0 z"/></g></svg>