<svg xmlns="http://www.w3.org/2000/svg" viewBox="2777.50 57.50 25.00 55.00"><g transform="translate(2760,-482.36218)" fill="currentColor"><path xmlns="http://www.w3.org/2000/svg" style="fill:currentColor;fill-opacity:1;stroke:none" id="rect3163-5-18-0-7" d="m 30,542.36208 c -5.54,0 -10,4.46 -10,10 l 0,5 c 0,3.0036 1.323,5.67 3.4063,7.5 -2.0833,1.83 -3.4063,4.4964 -3.4063,7.5 l 0,10 c 0,5.54 4.46,10 10,10 5.54,0 10,-4.46 10,-10 l 0,-10 c 0,-3.0036 -1.323,-5.67 -3.4062,-7.5 2.0832,-1.83 3.4062,-4.4964 3.4062,-7.5 l 0,-5 c 0,-5.54 -4.46,-10 -10,-10 z m 0,5 c 2.77,0 5,2.23 5,5 l 0,5 c 0,2.77 -2.23,5 -5,5 -2.77,0 -5,-2.23 -5,-5 l 0,-5 c 0,-2.77 2.23,-5 5,-5 z m 0,20 c 2.77,0 5,2.23 5,5 l 0,10 c 0,2.77 -2.23,5 -5,5 -2.77,0 -5,-2.23 -5,-5 l 0,-10 c 0,-2.77 2.23,-5 5,-5 z"/></g></svg>