<svg xmlns="http://www.w3.org/2000/svg" viewBox="3167.50 57.50 25.00 55.00"><g transform="translate(3150,-482.36218)" fill="currentColor"><path xmlns="http://www.w3.org/2000/svg" style="fill:currentColor;fill-opacity:1;stroke:none" id="rect3163-7-1-7-3-0-78" d="m 30,592.36208 c 5.54,0 10,-4.46 10,-10 l 0,-20 0,-10 c 0,-5.54 -4.46,-10 -10,-10 -5.54,0 -10,4.46 -10,10 l 0,10 c 0,5.54 4.46,10 10,10 1.8226,0 3.5315,-0.4986 5,-1.3438 l 0,11.3438 c 0,2.77 -2.23,5 -5,5 -2.77,0 -5,-2.23 -5,-5 l 0,-1 -5,0 0,1 c 0,5.54 4.46,10 10,10 z m 0,-25 c -2.77,0 -5,-2.23 -5,-5 l 0,-10 c 0,-2.77 2.23,-5 5,-5 2.77,0 5,2.23 5,5 l 0,10 c 0,2.77 -2.23,5 -5,5 z"/></g></svg>