<svg xmlns="http://www.w3.org/2000/svg" viewBox="4337.25 57.25 25.50 60.50"><g transform="translate(4320,-482.36218)" fill="currentColor"><path xmlns="http://www.w3.org/2000/svg" id="path17235-1-1" d="m 30,542.36218 c -5.522847,0 -10,4.47715 -10,10 l 0,30 c 0,5.52285 4.477153,10 10,10 0.433748,0 0.862064,-0.0402 1.28125,-0.0937 1.712866,3.0495 4.972162,5.09375 8.71875,5.09375 l 0,-5 c -1.639595,0 -3.088189,-0.81201 -4,-2.03125 2.424412,-1.82477 4,-4.70065 4,-7.96875 l 0,-30 c 0,-5.52285 -4.477153,-10 -10,-10 z m 0,5 c 2.761424,0 5,2.23858 5,5 l 0,30 c 0,0.71573 -0.166604,1.38439 -0.4375,2 -1.274659,-4.05645 -5.085329,-7 -9.5625,-7 l 0,-25 c 0,-2.76142 2.238576,-5 5,-5 z m -5,35 c 2.761424,0 5,2.23858 5,5 -2.761424,0 -5,-2.23858 -5,-5 z" style="fill:currentColor;fill-opacity:1;stroke:none"/></g></svg>